<svg id="Layer_1" data-name="Layer 1" xmlns="http://www.w3.org/2000/svg" viewBox="0 0 401.62 245.61" width="100%" height="100%">
  <defs>
    <style>
      .cls-1, .cls-6, .cls-7 {
        opacity: 0;
      }

      .cls-2, .cls-7 {
        fill: none;
        stroke-miterlimit: 10;
        stroke-width: 0.9px;
      }

      .cls-2 {
        stroke: #3d4752;
      }

      .cls-3 {
        fill: #d6d6d6;
      }

      .cls-4 {
        fill: #d6d6d6;
      }

      .cls-5 {
        fill: #3d4752;
      }

      .cls-6 {
        fill: #fff;
      }

      .cls-7 {
        stroke: #000;
      }
    </style>
  </defs>
  <title>retail-store-floorplan</title>
  <path class="cls-1 area" d="M382.78.56V245.23m-5.62-5.62V6.19" transform="translate(-0.1 -0.07)" id="PATH_1" title=""></path>
  <path class="cls-2 area" d="M382.78.07V245.23m-5.62-5.17V5.7" transform="translate(-0.1 -0.07)" id="PATH_2" title=""></path>
  <path class="cls-2 area" d="M.55,245.68V219.22H6.17m0,0v20.83m0-234.36v173H.55V.07" transform="translate(-0.1 -0.07)" id="PATH_3" title=""></path>
  <path class="cls-1 area" d="M.55.52H382.78m-5.62,5.63H6.17" transform="translate(-0.1 -0.07)" id="PATH_4" title=""></path>
  <path class="cls-2 area" d="M.55.52H382.78m-5.62,5.63H6.17" transform="translate(-0.1 -0.07)" id="PATH_5" title=""></path>
  <path class="cls-2 area" d="M383.23,245.23H324V239.6m0,0h53.15m-371,0H283.51v5.63H.55" transform="translate(-0.1 -0.07)" id="PATH_6" title=""></path>
  <path class="cls-3 area" d="M271.81,17.93a2.26,2.26,0,0,1,2.25-2.25h80.42a2.23,2.23,0,0,1,2.25,2.25v22.5a2.26,2.26,0,0,1-2.25,2.25H274.06a2.29,2.29,0,0,1-2.25-2.25Z" transform="translate(-0.1 -0.07)" id="PATH_7" title=""></path>
  <path class="cls-2 area" d="M271.81,17.93a2.26,2.26,0,0,1,2.25-2.25h80.42a2.23,2.23,0,0,1,2.25,2.25v22.5a2.26,2.26,0,0,1-2.25,2.25H274.06a2.29,2.29,0,0,1-2.25-2.25Z" transform="translate(-0.1 -0.07)" id="PATH_8" title=""></path>
  <path class="cls-3 area" d="M32.86,29.32a2.26,2.26,0,0,1,2.25-2.25h40.5a2.23,2.23,0,0,1,2.25,2.25v22.5a2.23,2.23,0,0,1-2.25,2.25H35.11a2.26,2.26,0,0,1-2.25-2.25Z" transform="translate(-0.1 -0.07)" id="PATH_9" title=""></path>
  <path class="cls-2 area" d="M32.86,29.32a2.26,2.26,0,0,1,2.25-2.25h40.5a2.23,2.23,0,0,1,2.25,2.25v22.5a2.23,2.23,0,0,1-2.25,2.25H35.11a2.26,2.26,0,0,1-2.25-2.25Z" transform="translate(-0.1 -0.07)" id="PATH_10" title=""></path>
  <rect class="cls-3 area" x="289.12" y="96.62" width="67.5" height="13.18" rx="2.25" ry="2.25" id="RECT_11" title=""></rect>
  <rect class="cls-2 area active" x="289.12" y="96.62" width="67.5" height="13.18" rx="2.25" ry="2.25" id="E3" title="Estante 3"></rect>
  <rect class="cls-3 area" x="82.12" y="212.4" width="100.48" height="27" rx="2.25" ry="2.25" id="RECT_13" title=""></rect>
  <rect class="cls-2 area" x="82.12" y="212.4" width="100.48" height="27" rx="2.25" ry="2.25" id="RECT_14" title=""></rect>
  <path class="cls-4 area" d="M85.66,176a2.26,2.26,0,0,1,2.25-2.25h9.9a2.23,2.23,0,0,1,2.25,2.25v10.35c-3.15,0-5.76,3.78-5.76,8.41V199c0,3.46-1.93,6.3-4.32,6.3s-4.32-2.83-4.32-6.3Z" transform="translate(-0.1 -0.07)" id="PATH_15" title=""></path>
  <path class="cls-2 area" d="M85.66,176a2.26,2.26,0,0,1,2.25-2.25h9.9a2.23,2.23,0,0,1,2.25,2.25v10.35c-3.15,0-5.76,3.78-5.76,8.41V199c0,3.46-1.93,6.3-4.32,6.3s-4.32-2.83-4.32-6.3Z" transform="translate(-0.1 -0.07)" id="PATH_16" title=""></path>
  <path class="cls-3 area" d="M32.72,74.63A2.23,2.23,0,0,1,35,72.38h40.5a2.23,2.23,0,0,1,2.25,2.25v22.5a2.26,2.26,0,0,1-2.25,2.25H35a2.26,2.26,0,0,1-2.25-2.25Z" transform="translate(-0.1 -0.07)" id="PATH_17" title=""></path>
  <path class="cls-2 area" d="M32.72,74.63A2.23,2.23,0,0,1,35,72.38h40.5a2.23,2.23,0,0,1,2.25,2.25v22.5a2.26,2.26,0,0,1-2.25,2.25H35a2.26,2.26,0,0,1-2.25-2.25Z" transform="translate(-0.1 -0.07)" id="PATH_18" title=""></path>
  <path class="cls-3 area" d="M32.72,119.9A2.26,2.26,0,0,1,35,117.65h40.5a2.26,2.26,0,0,1,2.25,2.25v22.5a2.23,2.23,0,0,1-2.25,2.25H35a2.23,2.23,0,0,1-2.25-2.25Z" transform="translate(-0.1 -0.07)" id="PATH_19" title=""></path>
  <path class="cls-2 area" d="M32.72,119.9A2.26,2.26,0,0,1,35,117.65h40.5a2.26,2.26,0,0,1,2.25,2.25v22.5a2.23,2.23,0,0,1-2.25,2.25H35a2.23,2.23,0,0,1-2.25-2.25Z" transform="translate(-0.1 -0.07)" id="PATH_20" title=""></path>
  <!-- 
  <path class="cls-5" d="M46,41.47c0-1.13-1.3-1-2.43-1v2c1.13,0,2.4.12,2.43-1m-.26-2.54c0-1-1.17-.86-2.17-.86v1.75C44.61,39.83,45.75,39.94,45.75,38.93Zm1.07,2.58c0,1.84-2.15,1.64-4,1.63V37.4h2c1,0,1.77.4,1.8,1.45a1.3,1.3,0,0,1-1,1.26A1.32,1.32,0,0,1,46.82,41.51Z" transform="translate(-0.1 -0.07)"/>
  <path class="cls-5" d="M49.22,42.63a1.09,1.09,0,0,0,1.11-1.33c-.83,0-1.9,0-1.9.73,0,.44.35.59.79.6M47.66,42c0-1.24,1.4-1.26,2.67-1.3,0-.65-.35-.95-.95-.95a1.6,1.6,0,0,0-1.09.45l-.4-.49a2.26,2.26,0,0,1,1.57-.58,1.42,1.42,0,0,1,1.6,1.51,23.92,23.92,0,0,0,.06,2.44h-.69a2.56,2.56,0,0,1-.06-.55h0a1.47,1.47,0,0,1-1.29.65C48.25,43.23,47.66,42.87,47.66,42Z" transform="translate(-0.1 -0.07)"/>
  <polyline class="cls-5" points="53.01 40.89 53.03 40.89 54.65 39.23 55.67 39.23 53.87 40.97 55.82 43.06 54.77 43.06 53.03 41.07 53.01 41.07 53.01 42.07 53.01 43.06 52.25 43.06 52.25 40 52.25 36.94 53.01 36.94 53.01 38.92 53.01 40.89"/>
  <path class="cls-5" d="M58.19,39.19c1.3,0,1.9.87,1.84,2.25H57a1.2,1.2,0,0,0,1.25,1.17A1.28,1.28,0,0,0,59.34,42l.53.43a1.92,1.92,0,0,1-1.65.79,2,2,0,0,1,0-4m1.08,1.68a1.07,1.07,0,0,0-1.54-1,1.12,1.12,0,0,0-.75,1Z" transform="translate(-0.1 -0.07)"/>
  <path class="cls-5" d="M61.09,43.13c0-1.28,0-2.61,0-3.84h.72c0,.16,0,.48,0,.65h0a1.3,1.3,0,0,1,1.47-.72l0,.7a1.1,1.1,0,0,0-1.43,1.19v2h-.76" transform="translate(-0.1 -0.07)"/>
  <path class="cls-5" d="M64.29,39.3c.41,1,.78,2,1.21,3l1.06-3h.81L65.51,44a1.4,1.4,0,0,1-1.83,1l.07-.67a.79.79,0,0,0,.83-.1,4.73,4.73,0,0,0,.51-1.12L63.44,39.3h.85" transform="translate(-0.1 -0.07)"/>
  <polyline class="cls-5" points="45.87 88.33 45.07 88.33 45.07 85.47 45.07 82.6 48.65 82.6 48.65 82.95 48.65 83.31 45.87 83.31 45.87 84.2 45.87 85.09 48.47 85.09 48.47 85.43 48.47 85.78 45.87 85.78 45.87 87.06 45.87 88.33"/>
  <path class="cls-5" d="M49.72,88.4c0-1.28,0-2.61,0-3.84h.72c0,.16,0,.48,0,.65h0a1.3,1.3,0,0,1,1.47-.72l0,.7a1.1,1.1,0,0,0-1.43,1.19v2h-.76" transform="translate(-0.1 -0.07)"/>
  <path class="cls-5" d="M56.05,84.57c0,1.28,0,2.61,0,3.84h-.72c0-.16,0-.49,0-.63a1.41,1.41,0,0,1-1.26.74,1.36,1.36,0,0,1-1.43-1.56V84.57h.76v2.12c0,.68.19,1.18.87,1.18s1-.57,1-1.26v-2h.76" transform="translate(-0.1 -0.07)"/>
  <path class="cls-5" d="M57.76,82.69a.5.5,0,0,1,.51.49.51.51,0,1,1-.51-.49m.38,5.72h-.76V84.57h.76V88.4Z" transform="translate(-0.1 -0.07)"/>
  <path class="cls-5" d="M60.69,88.47c-.75,0-1.13-.43-1.12-1.2V85.19h-.74v-.62h.74v-1.1h.75v1.1h1v.62h-1v2c0,.44.13.64.54.65a1.09,1.09,0,0,0,.45-.1l0,.62a1.94,1.94,0,0,1-.65.11" transform="translate(-0.1 -0.07)"/>
  <path class="cls-5" d="M62,86.09c-.5-1.26.95-2,2.14-1.47a1.3,1.3,0,0,1,.6.47l-.53.45a1,1,0,0,0-.89-.48c-.38,0-.71.12-.71.5,0,.59.92.51,1.39.73a1.08,1.08,0,0,1,.78,1c.06,1.56-2.45,1.51-3.08.55l.54-.46a1.24,1.24,0,0,0,1,.53c.42,0,.76-.14.76-.56,0-.73-1.27-.51-1.76-.95a.84.84,0,0,1-.26-.3" transform="translate(-0.1 -0.07)"/>
  <polyline class="cls-5" points="36.35 132.61 36.37 132.61 38.1 127.92 38.97 127.92 36.72 133.65 35.97 133.65 33.73 127.92 34.63 127.92"/>
  <path class="cls-5" d="M41.1,129.78c1.3,0,1.9.87,1.84,2.25h-3a1.2,1.2,0,0,0,1.25,1.17,1.28,1.28,0,0,0,1.12-.58l.53.43a1.92,1.92,0,0,1-1.65.79,2,2,0,0,1,0-4m1.08,1.68a1.07,1.07,0,0,0-1.54-1,1.12,1.12,0,0,0-.75,1Z" transform="translate(-0.1 -0.07)"/>
  <path class="cls-5" d="M45.81,130.41a1.36,1.36,0,0,0,0,2.71,1.35,1.35,0,0,0,0-2.71m2,3.12a1.92,1.92,0,0,1-2.12,2.14,2.81,2.81,0,0,1-1.88-.7l.49-.59a2,2,0,0,0,1.4.62c1.1,0,1.47-.77,1.34-1.91a1.56,1.56,0,0,1-1.35.66,2,2,0,0,1,0-4,1.63,1.63,0,0,1,1.4.72v-.62h.74v3.64Z" transform="translate(-0.1 -0.07)"/>
  <path class="cls-5" d="M50.86,129.78c1.3,0,1.9.87,1.84,2.25h-3a1.2,1.2,0,0,0,1.25,1.17,1.28,1.28,0,0,0,1.12-.58l.53.43a1.92,1.92,0,0,1-1.65.79,2,2,0,0,1,0-4m1.08,1.68a1.07,1.07,0,0,0-1.54-1,1.12,1.12,0,0,0-.75,1Z" transform="translate(-0.1 -0.07)"/>
  <path class="cls-5" d="M55,133.78c-.75,0-1.13-.43-1.12-1.2V130.5h-.74v-.62h.74v-1.1h.75v1.1h1v.62h-1v2c0,.44.13.64.54.65a1.09,1.09,0,0,0,.45-.1l0,.62a1.94,1.94,0,0,1-.65.11" transform="translate(-0.1 -0.07)"/>
  <path class="cls-5" d="M57.71,133.22a1.09,1.09,0,0,0,1.11-1.33c-.83,0-1.9,0-1.9.73,0,.44.35.59.79.6m-1.56-.58c0-1.24,1.4-1.26,2.67-1.3,0-.65-.35-.95-.95-.95a1.6,1.6,0,0,0-1.09.45l-.4-.49a2.26,2.26,0,0,1,1.57-.58,1.42,1.42,0,0,1,1.6,1.51,23.92,23.92,0,0,0,.06,2.44h-.69a2.56,2.56,0,0,1-.06-.55h0a1.47,1.47,0,0,1-1.29.65C56.75,133.82,56.15,133.45,56.15,132.63Z" transform="translate(-0.1 -0.07)"/>
  <path class="cls-5" d="M62.85,133.19a1.39,1.39,0,0,0,0-2.78,1.39,1.39,0,0,0,0,2.78m.13.64a1.62,1.62,0,0,1-1.39-.71h0v.61h-.74V127.6h.76v2.86h0a1.6,1.6,0,0,1,1.37-.68,2,2,0,0,1,0,4Z" transform="translate(-0.1 -0.07)"/>
  <polyline class="cls-5" points="66.65 133.65 65.89 133.65 65.89 130.59 65.89 127.53 66.65 127.53 66.65 130.59 66.65 133.65"/>
  <path class="cls-5" d="M69.81,129.78c1.3,0,1.9.87,1.84,2.25h-3a1.2,1.2,0,0,0,1.25,1.17,1.28,1.28,0,0,0,1.12-.58l.53.43a1.92,1.92,0,0,1-1.65.79,2,2,0,0,1,0-4m1.08,1.68a1.07,1.07,0,0,0-1.54-1,1.12,1.12,0,0,0-.75,1Z" transform="translate(-0.1 -0.07)"/>
  <path class="cls-5" d="M72.58,131.4c-.5-1.26.95-2,2.14-1.47a1.3,1.3,0,0,1,.6.47l-.53.45a1,1,0,0,0-.89-.48c-.38,0-.71.12-.71.5,0,.59.92.51,1.39.73a1.08,1.08,0,0,1,.78,1c.06,1.56-2.45,1.51-3.08.55l.54-.46a1.24,1.24,0,0,0,1,.53c.42,0,.76-.14.76-.56,0-.73-1.27-.51-1.76-.95a.84.84,0,0,1-.26-.3" transform="translate(-0.1 -0.07)"/>
  <path class="cls-5" d="M123.91,228a2.3,2.3,0,1,0-2.16-2.3,2.07,2.07,0,0,0,2.16,2.3m2.82-3.52a3.36,3.36,0,0,1,0,2.45,3.1,3.1,0,0,1-5.62,0,3.44,3.44,0,0,1,0-2.45,3.11,3.11,0,0,1,5.62,0Z" transform="translate(-0.1 -0.07)"/>
  <path class="cls-5" d="M129.6,223c-.83,0-.66.93-.68,1.73h.89v.62h-.89v3.22h-.76v-3.22h-.76v-.62h.76v-.8c0-1.16.74-1.77,1.91-1.52L130,223a1.35,1.35,0,0,0-.38-.06" transform="translate(-0.1 -0.07)"/>
  <path class="cls-5" d="M131.94,223c-.83,0-.66.93-.68,1.73h.89v.62h-.89v3.22h-.76v-3.22h-.76v-.62h.76v-.8c0-1.16.74-1.77,1.91-1.52l-.09.66a1.35,1.35,0,0,0-.38-.06" transform="translate(-0.1 -0.07)"/>
  <path class="cls-5" d="M133.25,222.82a.5.5,0,0,1,.51.49.51.51,0,1,1-.51-.49m.38,5.72h-.76V224.7h.76v3.84Z" transform="translate(-0.1 -0.07)"/>
  <path class="cls-5" d="M134.7,226.62a1.88,1.88,0,0,1,2-2,1.82,1.82,0,0,1,1.44.63l-.55.45a1.05,1.05,0,0,0-.88-.44,1.39,1.39,0,0,0,0,2.77,1.1,1.1,0,0,0,.92-.42l.51.46a1.77,1.77,0,0,1-1.43.6,1.9,1.9,0,0,1-2.07-2" transform="translate(-0.1 -0.07)"/>
  <path class="cls-5" d="M140.69,224.59c1.3,0,1.9.87,1.84,2.25h-3a1.2,1.2,0,0,0,1.25,1.17,1.28,1.28,0,0,0,1.12-.58l.53.43a1.92,1.92,0,0,1-1.65.79,2,2,0,0,1,0-4m1.08,1.68a1.07,1.07,0,0,0-1.54-1,1.12,1.12,0,0,0-.75,1Z" transform="translate(-0.1 -0.07)"/>
  -->
  <path class="cls-4 area" d="M105.77,176a2.23,2.23,0,0,1,2.25-2.25h9.9a2.23,2.23,0,0,1,2.25,2.25v10.35c-3.19,0-5.76,3.78-5.76,8.41V199c0,3.46-1.94,6.3-4.32,6.3s-4.32-2.83-4.32-6.3Z" transform="translate(-0.1 -0.07)" id="PATH_21" title=""></path>
  <path class="cls-2 area" d="M105.77,176a2.23,2.23,0,0,1,2.25-2.25h9.9a2.23,2.23,0,0,1,2.25,2.25v10.35c-3.19,0-5.76,3.78-5.76,8.41V199c0,3.46-1.94,6.3-4.32,6.3s-4.32-2.83-4.32-6.3Z" transform="translate(-0.1 -0.07)" id="PATH_22" title=""></path>
  <path class="cls-4 area" d="M125.89,176a2.23,2.23,0,0,1,2.25-2.25H138a2.26,2.26,0,0,1,2.25,2.25v10.35c-3.2,0-5.76,3.78-5.76,8.41V199c0,3.46-1.94,6.3-4.32,6.3s-4.32-2.83-4.32-6.3Z" transform="translate(-0.1 -0.07)" id="PATH_23" title=""></path>
  <path class="cls-2 area" d="M125.89,176a2.23,2.23,0,0,1,2.25-2.25H138a2.26,2.26,0,0,1,2.25,2.25v10.35c-3.2,0-5.76,3.78-5.76,8.41V199c0,3.46-1.94,6.3-4.32,6.3s-4.32-2.83-4.32-6.3Z" transform="translate(-0.1 -0.07)" id="PATH_24" title=""></path>
  <path class="cls-4 area" d="M146,176a2.26,2.26,0,0,1,2.25-2.25h9.9a2.23,2.23,0,0,1,2.25,2.25v10.35c-3.15,0-5.76,3.78-5.76,8.41V199c0,3.46-1.93,6.3-4.32,6.3S146,202.43,146,199Z" transform="translate(-0.1 -0.07)" id="PATH_25" title=""></path>
  <path class="cls-2 area" d="M146,176a2.26,2.26,0,0,1,2.25-2.25h9.9a2.23,2.23,0,0,1,2.25,2.25v10.35c-3.15,0-5.76,3.78-5.76,8.41V199c0,3.46-1.93,6.3-4.32,6.3S146,202.43,146,199Z" transform="translate(-0.1 -0.07)" id="PATH_26" title=""></path>
  <path class="cls-4 area" d="M165.17,176a2.23,2.23,0,0,1,2.25-2.25h9.9a2.23,2.23,0,0,1,2.25,2.25v10.35c-3.2,0-5.76,3.78-5.76,8.41V199c0,3.46-1.93,6.3-4.32,6.3s-4.32-2.83-4.32-6.3Z" transform="translate(-0.1 -0.07)" id="PATH_27" title=""></path>
  <path class="cls-2 area" d="M165.17,176a2.23,2.23,0,0,1,2.25-2.25h9.9a2.23,2.23,0,0,1,2.25,2.25v10.35c-3.2,0-5.76,3.78-5.76,8.41V199c0,3.46-1.93,6.3-4.32,6.3s-4.32-2.83-4.32-6.3Z" transform="translate(-0.1 -0.07)" id="PATH_28" title=""></path>
  <!--
  <path class="cls-5" d="M114.48,166.77A1.78,1.78,0,0,0,116,166l.64.44a2.57,2.57,0,0,1-2.19,1,2.87,2.87,0,0,1-2.79-1.8,3.44,3.44,0,0,1,0-2.45,3,3,0,0,1,3.42-1.73,2.23,2.23,0,0,1,1.47.83l-.63.49a1.73,1.73,0,0,0-1.43-.67,2.1,2.1,0,0,0-2.18,2.3,2.06,2.06,0,0,0,2.15,2.31" transform="translate(-0.1 -0.07)"/>
  <path class="cls-5" d="M119.25,164c-.65,0-1,.57-1,1.26v2h-.76v-6.12h.76c0,.95,0,1.94,0,2.87a1.35,1.35,0,0,1,1.21-.69,1.37,1.37,0,0,1,1.43,1.56v2.38h-.76v-2.12c0-.67-.19-1.17-.87-1.17" transform="translate(-0.1 -0.07)"/>
  <path class="cls-5" d="M123.9,163.39c1.3,0,1.9.87,1.84,2.25h-3a1.2,1.2,0,0,0,1.25,1.17,1.28,1.28,0,0,0,1.12-.58l.53.43a1.92,1.92,0,0,1-1.65.79,2,2,0,0,1,0-4m1.08,1.68a1.07,1.07,0,0,0-1.54-1,1.12,1.12,0,0,0-.75,1Z" transform="translate(-0.1 -0.07)"/>
  <path class="cls-5" d="M126.56,165.42a1.88,1.88,0,0,1,2-2,1.82,1.82,0,0,1,1.44.63l-.55.45a1.05,1.05,0,0,0-.88-.44,1.39,1.39,0,0,0,0,2.77,1.1,1.1,0,0,0,.92-.42l.51.46a1.77,1.77,0,0,1-1.43.6,1.9,1.9,0,0,1-2.07-2" transform="translate(-0.1 -0.07)"/>
  <polyline class="cls-5" points="131.49 165.09 131.52 165.09 133.13 163.43 134.15 163.43 132.35 165.17 134.3 167.26 133.25 167.26 131.52 165.27 131.49 165.27 131.49 166.27 131.49 167.26 130.73 167.26 130.73 164.2 130.73 161.14 131.49 161.14 131.49 163.12 131.49 165.09"/>
  <path class="cls-5" d="M136.73,166.8a1.39,1.39,0,1,0-1.28-1.39,1.24,1.24,0,0,0,1.28,1.39m0-3.41a2,2,0,1,1-2.07,2A1.9,1.9,0,0,1,136.73,163.39Z" transform="translate(-0.1 -0.07)"/>
  <path class="cls-5" d="M143.25,163.5c0,1.28,0,2.61,0,3.84h-.72c0-.16,0-.49,0-.63a1.41,1.41,0,0,1-1.26.74,1.36,1.36,0,0,1-1.43-1.56V163.5h.76v2.12c0,.68.19,1.18.87,1.18s1-.57,1-1.26v-2h.76" transform="translate(-0.1 -0.07)"/>
  <path class="cls-5" d="M145.8,167.4c-.75,0-1.13-.43-1.12-1.2v-2.08h-.74v-.62h.74v-1.1h.75v1.1h1v.62h-1v2c0,.44.13.64.54.65a1.09,1.09,0,0,0,.45-.1l0,.62a1.94,1.94,0,0,1-.65.11" transform="translate(-0.1 -0.07)"/>
  <path class="cls-5" d="M147.1,165c-.5-1.26.95-2,2.14-1.47a1.3,1.3,0,0,1,.6.47l-.53.45a1,1,0,0,0-.89-.48c-.38,0-.71.12-.71.5,0,.59.92.51,1.39.73a1.08,1.08,0,0,1,.78,1c.06,1.56-2.45,1.51-3.08.55l.54-.46a1.24,1.24,0,0,0,1,.53c.42,0,.76-.14.76-.56,0-.73-1.27-.51-1.76-.95a.84.84,0,0,1-.26-.3" transform="translate(-0.1 -0.07)"/>
  -->
  <rect class="cls-6 area" x="293.17" y="185.4" width="108" height="27" rx="2.25" ry="2.25" id="RECT_29" title=""></rect>
  <rect class="cls-7 area" x="293.17" y="185.4" width="108" height="27" rx="2.25" ry="2.25" id="RECT_30" title=""></rect>
  <!--
  <path class="cls-5" d="M341.17,201a1.78,1.78,0,0,0,1.54-.76l.64.44a2.57,2.57,0,0,1-2.19,1,2.87,2.87,0,0,1-2.79-1.8,3.44,3.44,0,0,1,0-2.45,3,3,0,0,1,3.42-1.73,2.23,2.23,0,0,1,1.47.83l-.63.49a1.73,1.73,0,0,0-1.43-.67,2.1,2.1,0,0,0-2.18,2.3,2.06,2.06,0,0,0,2.15,2.31" transform="translate(-0.1 -0.07)"/>
  <path class="cls-5" d="M345.26,201a1.09,1.09,0,0,0,1.11-1.33c-.83,0-1.9,0-1.9.73,0,.44.35.59.79.6m-1.56-.58c0-1.24,1.4-1.26,2.67-1.3,0-.65-.35-.95-.95-.95a1.6,1.6,0,0,0-1.09.45l-.4-.49a2.26,2.26,0,0,1,1.57-.58,1.42,1.42,0,0,1,1.6,1.51,23.92,23.92,0,0,0,.06,2.44h-.69a2.56,2.56,0,0,1-.06-.55h0a1.47,1.47,0,0,1-1.29.65C344.29,201.63,343.69,201.27,343.69,200.45Z" transform="translate(-0.1 -0.07)"/>
  <path class="cls-5" d="M348.37,201.53c0-1.28,0-2.61,0-3.84h.72c0,.16,0,.48,0,.65h0a1.3,1.3,0,0,1,1.47-.72l0,.7a1.1,1.1,0,0,0-1.43,1.19v2h-.76" transform="translate(-0.1 -0.07)"/>
  <path class="cls-5" d="M352.43,201.6c-.75,0-1.13-.43-1.12-1.2v-2.08h-.74v-.62h.74v-1.1h.75v1.1h1v.62h-1v2c0,.44.13.64.54.65a1.09,1.09,0,0,0,.45-.1l0,.62a1.94,1.94,0,0,1-.65.11" transform="translate(-0.1 -0.07)"/>
  <path class="cls-5" d="M353.73,199.22c-.5-1.26.95-2,2.14-1.47a1.3,1.3,0,0,1,.6.47l-.53.45a1,1,0,0,0-.89-.48c-.38,0-.71.12-.71.5,0,.59.92.51,1.39.73a1.08,1.08,0,0,1,.78,1c.06,1.56-2.45,1.51-3.08.55l.54-.46a1.24,1.24,0,0,0,1,.53c.42,0,.76-.14.76-.56,0-.73-1.27-.51-1.76-.95a.84.84,0,0,1-.26-.3" transform="translate(-0.1 -0.07)"/>
  -->
  <rect class="cls-3 area" x="289.12" y="117.45" width="67.5" height="13.18" rx="2.25" ry="2.25" id="RECT_31" title=""></rect>
  <rect class="cls-2 area" x="289.12" y="117.45" width="67.5" height="13.18" rx="2.25" ry="2.25" id="E2" title="Estante 2"></rect>
  <path class="cls-3 area" d="M289.22,140.6a2.26,2.26,0,0,1,2.25-2.25h63a2.26,2.26,0,0,1,2.25,2.25v8.73a2.26,2.26,0,0,1-2.25,2.25h-63a2.26,2.26,0,0,1-2.25-2.25Z" transform="translate(-0.1 -0.07)" id="PATH_33" title=""></path>
  <path class="cls-2 area" d="M289.22,140.6a2.26,2.26,0,0,1,2.25-2.25h63a2.26,2.26,0,0,1,2.25,2.25v8.73a2.26,2.26,0,0,1-2.25,2.25h-63a2.26,2.26,0,0,1-2.25-2.25Z" transform="translate(-0.1 -0.07)" id="PATH_34" title=""></path>
  <rect class="cls-7 area" x="266.17" y="146.7" width="108" height="27" rx="2.25" ry="2.25" id="E1" title="Estante 1"></rect>
  <!--
  <path class="cls-5" d="M309.64,162.27a1.78,1.78,0,0,0,1.54-.76l.64.44a2.57,2.57,0,0,1-2.19,1,2.87,2.87,0,0,1-2.79-1.8,3.44,3.44,0,0,1,0-2.45,3,3,0,0,1,3.42-1.73,2.23,2.23,0,0,1,1.47.83l-.63.49a1.73,1.73,0,0,0-1.43-.67,2.1,2.1,0,0,0-2.18,2.3,2.06,2.06,0,0,0,2.15,2.31" transform="translate(-0.1 -0.07)"/>
  <polyline class="cls-5" points="313.28 162.76 312.52 162.76 312.52 159.7 312.52 156.64 313.28 156.64 313.28 159.7 313.28 162.76"/>
  <path class="cls-5" d="M316.52,162.3a1.39,1.39,0,1,0-1.28-1.39,1.24,1.24,0,0,0,1.28,1.39m0-3.41a2,2,0,1,1-2.07,2A1.9,1.9,0,0,1,316.52,158.89Z" transform="translate(-0.1 -0.07)"/>
  <path class="cls-5" d="M320.87,162.9c-.75,0-1.13-.43-1.12-1.2v-2.08H319V159h.74v-1.1h.75V159h1v.62h-1v2c0,.44.13.64.54.65a1.09,1.09,0,0,0,.45-.1l0,.62a1.94,1.94,0,0,1-.65.11" transform="translate(-0.1 -0.07)"/>
  <path class="cls-5" d="M324.12,159.54c-.65,0-1,.57-1,1.26v2h-.76v-6.12h.76c0,.95,0,1.94,0,2.87a1.35,1.35,0,0,1,1.21-.69,1.37,1.37,0,0,1,1.43,1.56v2.38H325v-2.12c0-.67-.19-1.17-.87-1.17" transform="translate(-0.1 -0.07)"/>
  <path class="cls-5" d="M327.43,157.12a.5.5,0,0,1,.51.49.51.51,0,1,1-.51-.49m.38,5.72H327V159h.76v3.84Z" transform="translate(-0.1 -0.07)"/>
  <path class="cls-5" d="M329.14,162.83c0-1.28,0-2.61,0-3.84h.72c0,.16,0,.45,0,.63h0a1.34,1.34,0,0,1,1.25-.74c1,0,1.43.61,1.43,1.56v2.38h-.76V160.7c0-.68-.19-1.17-.87-1.17s-1,.57-1,1.26v2h-.76" transform="translate(-0.1 -0.07)"/>
  <path class="cls-5" d="M335.66,159.52a1.36,1.36,0,0,0,0,2.71,1.35,1.35,0,0,0,0-2.71m2,3.12a1.92,1.92,0,0,1-2.12,2.14,2.81,2.81,0,0,1-1.88-.7l.49-.59a2,2,0,0,0,1.4.62c1.1,0,1.47-.77,1.34-1.91a1.56,1.56,0,0,1-1.35.66,2,2,0,0,1,0-4,1.63,1.63,0,0,1,1.4.72V159h.74v3.64Z" transform="translate(-0.1 -0.07)"/>
  -->
  <rect class="cls-3 area" x="271.89" y="45.45" width="84.87" height="27" rx="2.25" ry="2.25" id="RECT_36" title=""></rect>
  <rect class="cls-2 area" x="271.89" y="45.45" width="84.87" height="27" rx="2.25" ry="2.25" id="RECT_37" title=""></rect>
  <path class="cls-7 area" d="M257.27,68.83a2.26,2.26,0,0,1,2.25-2.25H363a2.26,2.26,0,0,1,2.25,2.25v22.5A2.23,2.23,0,0,1,363,93.58H259.52a2.23,2.23,0,0,1-2.25-2.25Z" transform="translate(-0.1 -0.07)" id="PATH_38" title=""></path>
  <!--
  <polyline class="cls-5" points="296.42 81.86 299.42 81.86 299.42 82.22 299.42 82.58 295.62 82.58 295.62 79.71 295.62 76.84 299.3 76.84 299.3 77.19 299.3 77.55 296.42 77.55 296.42 78.4 296.42 79.26 299.13 79.26 299.13 79.61 299.13 79.95 296.42 79.95 296.42 80.91 296.42 81.86"/>
  <polyline class="cls-5" points="301.23 82.58 300.46 82.58 300.46 79.51 300.46 76.45 301.23 76.45 301.23 79.51 301.23 82.58"/>
  <path class="cls-5" d="M304.39,78.7c1.3,0,1.9.87,1.84,2.25h-3a1.2,1.2,0,0,0,1.25,1.17,1.28,1.28,0,0,0,1.12-.58l.53.43a1.92,1.92,0,0,1-1.65.79,2,2,0,0,1,0-4m1.08,1.68a1.07,1.07,0,0,0-1.54-1,1.12,1.12,0,0,0-.75,1Z" transform="translate(-0.1 -0.07)"/>
  <path class="cls-5" d="M307,80.73a1.88,1.88,0,0,1,2-2,1.82,1.82,0,0,1,1.44.63l-.55.45a1.05,1.05,0,0,0-.88-.44,1.39,1.39,0,0,0,0,2.77,1.1,1.1,0,0,0,.92-.42l.51.46a1.77,1.77,0,0,1-1.43.6,1.9,1.9,0,0,1-2.07-2" transform="translate(-0.1 -0.07)"/>
  <path class="cls-5" d="M312.52,82.71c-.75,0-1.13-.43-1.12-1.2V79.43h-.74v-.62h.74V77.7h.75v1.1h1v.62h-1v2c0,.44.13.64.54.65a1.09,1.09,0,0,0,.45-.1l0,.62a1.94,1.94,0,0,1-.65.11" transform="translate(-0.1 -0.07)"/>
  <path class="cls-5" d="M314,82.64c0-1.28,0-2.61,0-3.84h.72c0,.16,0,.48,0,.65h0a1.3,1.3,0,0,1,1.47-.72l0,.7a1.1,1.1,0,0,0-1.43,1.19v2H314" transform="translate(-0.1 -0.07)"/>
  <path class="cls-5" d="M318.56,82.11a1.39,1.39,0,1,0-1.28-1.39,1.24,1.24,0,0,0,1.28,1.39m0-3.41a2,2,0,1,1-2.07,2A1.9,1.9,0,0,1,318.56,78.7Z" transform="translate(-0.1 -0.07)"/>
  <path class="cls-5" d="M321.69,82.64c0-1.28,0-2.61,0-3.84h.72c0,.16,0,.45,0,.63h0a1.34,1.34,0,0,1,1.25-.74c1,0,1.43.61,1.43,1.56v2.38h-.76V80.51c0-.68-.19-1.17-.87-1.17s-1,.57-1,1.26v2h-.76" transform="translate(-0.1 -0.07)"/>
  <path class="cls-5" d="M326.79,76.93a.5.5,0,0,1,.51.49.51.51,0,1,1-.51-.49m.38,5.72h-.76V78.81h.76v3.84Z" transform="translate(-0.1 -0.07)"/>
  <path class="cls-5" d="M328.25,80.73a1.88,1.88,0,0,1,2-2,1.82,1.82,0,0,1,1.44.63l-.55.45a1.05,1.05,0,0,0-.88-.44,1.39,1.39,0,0,0,0,2.77,1.1,1.1,0,0,0,.92-.42l.51.46a1.77,1.77,0,0,1-1.43.6,1.9,1.9,0,0,1-2.07-2" transform="translate(-0.1 -0.07)"/>
  <path class="cls-5" d="M332.36,80.33c-.5-1.26.95-2,2.14-1.47a1.3,1.3,0,0,1,.6.47l-.53.45a1,1,0,0,0-.89-.48c-.38,0-.71.12-.71.5,0,.59.92.51,1.39.73a1.08,1.08,0,0,1,.78,1c.06,1.56-2.45,1.51-3.08.55l.54-.46a1.24,1.24,0,0,0,1,.53c.42,0,.76-.14.76-.56,0-.73-1.27-.51-1.76-.95a.84.84,0,0,1-.26-.3" transform="translate(-0.1 -0.07)"/>
  -->
  <path class="cls-4 area" d="M116.74,54.07A2.26,2.26,0,0,1,119,56.32v63a2.26,2.26,0,0,1-2.25,2.25H108a2.26,2.26,0,0,1-2.25-2.25v-63A2.26,2.26,0,0,1,108,54.07Z" transform="translate(-0.1 -0.07)" id="PATH_39" title=""></path>
  <path class="cls-2 area" d="M116.74,54.07A2.26,2.26,0,0,1,119,56.32v63a2.26,2.26,0,0,1-2.25,2.25H108a2.26,2.26,0,0,1-2.25-2.25v-63A2.26,2.26,0,0,1,108,54.07Z" transform="translate(-0.1 -0.07)" id="PATH_40" title=""></path>
  <path class="cls-4 area" d="M150.62,54.07a2.29,2.29,0,0,1,2.25,2.25v63a2.26,2.26,0,0,1-2.25,2.25h-8.73a2.26,2.26,0,0,1-2.25-2.25v-63a2.29,2.29,0,0,1,2.25-2.25Z" transform="translate(-0.1 -0.07)" id="PATH_41" title=""></path>
  <path class="cls-2 area" d="M150.62,54.07a2.29,2.29,0,0,1,2.25,2.25v63a2.26,2.26,0,0,1-2.25,2.25h-8.73a2.26,2.26,0,0,1-2.25-2.25v-63a2.29,2.29,0,0,1,2.25-2.25Z" transform="translate(-0.1 -0.07)" id="PATH_42" title=""></path>
  <path class="cls-4 area" d="M184.37,54.07a2.29,2.29,0,0,1,2.25,2.25v63a2.26,2.26,0,0,1-2.25,2.25h-8.73a2.26,2.26,0,0,1-2.25-2.25v-63a2.29,2.29,0,0,1,2.25-2.25Z" transform="translate(-0.1 -0.07)" id="PATH_43" title=""></path>
  <path class="cls-2 area" d="M184.37,54.07a2.29,2.29,0,0,1,2.25,2.25v63a2.26,2.26,0,0,1-2.25,2.25h-8.73a2.26,2.26,0,0,1-2.25-2.25v-63a2.29,2.29,0,0,1,2.25-2.25Z" transform="translate(-0.1 -0.07)" id="PATH_44" title=""></path>
  <path class="cls-4 area" d="M218.44,54.07a2.26,2.26,0,0,1,2.25,2.25v63a2.26,2.26,0,0,1-2.25,2.25h-8.73a2.26,2.26,0,0,1-2.25-2.25v-63a2.26,2.26,0,0,1,2.25-2.25Z" transform="translate(-0.1 -0.07)" id="PATH_45" title=""></path>
  <path class="cls-2 area" d="M218.44,54.07a2.26,2.26,0,0,1,2.25,2.25v63a2.26,2.26,0,0,1-2.25,2.25h-8.73a2.26,2.26,0,0,1-2.25-2.25v-63a2.26,2.26,0,0,1,2.25-2.25Z" transform="translate(-0.1 -0.07)" id="PATH_46" title=""></path>
  <path class="cls-4 area" d="M252,54.11a2.26,2.26,0,0,1,2.25,2.25v63a2.29,2.29,0,0,1-2.25,2.25h-8.73a2.29,2.29,0,0,1-2.25-2.25v-63a2.26,2.26,0,0,1,2.25-2.25Z" transform="translate(-0.1 -0.07)" id="PATH_47" title=""></path>
  <path class="cls-2 area" d="M252,54.11a2.26,2.26,0,0,1,2.25,2.25v63a2.29,2.29,0,0,1-2.25,2.25h-8.73a2.29,2.29,0,0,1-2.25-2.25v-63a2.26,2.26,0,0,1,2.25-2.25Z" transform="translate(-0.1 -0.07)" id="PATH_48" title=""></path>
  <path class="cls-2 area" d="M324,242.44a39.17,39.17,0,0,0-11.83-28.66m-28.67,28.66,28.67-28.66" transform="translate(-0.1 -0.07)" id="PATH_49" title=""></path>
  <path class="cls-2 area" d="M3.34,219.22A38.87,38.87,0,0,0,32,207.34M3.34,178.72,32,207.34" transform="translate(-0.1 -0.07)" id="PATH_50" title=""></path>
  <!--
  <path class="cls-5" d="M26.17,189.27a1.78,1.78,0,0,0,1.54-.76l.64.44a2.57,2.57,0,0,1-2.19,1,2.87,2.87,0,0,1-2.79-1.8,3.44,3.44,0,0,1,0-2.45A3,3,0,0,1,26.78,184a2.23,2.23,0,0,1,1.47.83l-.63.49a1.73,1.73,0,0,0-1.43-.67A2.1,2.1,0,0,0,24,187a2.06,2.06,0,0,0,2.15,2.31" transform="translate(-0.1 -0.07)"/>
  <path class="cls-5" d="M30.26,189.33A1.09,1.09,0,0,0,31.37,188c-.83,0-1.9,0-1.9.73,0,.44.35.59.79.6m-1.56-.58c0-1.24,1.4-1.26,2.67-1.3,0-.65-.35-.95-.95-.95a1.6,1.6,0,0,0-1.09.45l-.4-.49a2.26,2.26,0,0,1,1.57-.58,1.42,1.42,0,0,1,1.6,1.51,23.92,23.92,0,0,0,.06,2.44h-.69a2.56,2.56,0,0,1-.06-.55h0a1.47,1.47,0,0,1-1.29.65C29.29,189.93,28.69,189.57,28.69,188.75Z" transform="translate(-0.1 -0.07)"/>
  <path class="cls-5" d="M33.37,189.83c0-1.28,0-2.61,0-3.84h.72c0,.16,0,.48,0,.65h0a1.3,1.3,0,0,1,1.47-.72l0,.7a1.1,1.1,0,0,0-1.43,1.19v2h-.76" transform="translate(-0.1 -0.07)"/>
  <path class="cls-5" d="M37.43,189.9c-.75,0-1.13-.43-1.12-1.2v-2.08h-.74V186h.74v-1.1h.75V186h1v.62h-1v2c0,.44.13.64.54.65a1.09,1.09,0,0,0,.45-.1l0,.62a1.94,1.94,0,0,1-.65.11" transform="translate(-0.1 -0.07)"/>
  <path class="cls-5" d="M38.73,187.52c-.5-1.26.95-2,2.14-1.47a1.3,1.3,0,0,1,.6.47l-.53.45a1,1,0,0,0-.89-.48c-.38,0-.71.12-.71.5,0,.59.92.51,1.39.73a1.08,1.08,0,0,1,.78,1c.06,1.56-2.45,1.51-3.08.55l.54-.46a1.24,1.24,0,0,0,1,.53c.42,0,.76-.14.76-.56,0-.73-1.27-.51-1.76-.95a.84.84,0,0,1-.26-.3" transform="translate(-0.1 -0.07)"/>
  -->
</svg>
